<svg width="410" height="410" viewBox="0 0 410 410" fill="none" xmlns="http://www.w3.org/2000/svg">
<path d="M0 205C0 91.7816 91.7816 0 205 0C318.218 0 410 91.7816 410 205C410 318.218 318.218 410 205 410C91.7816 410 0 318.218 0 205Z" fill="black"/>
<rect x="150" y="96" width="53" height="53" fill="#FAFAFA"/>
<rect x="150" y="202" width="53" height="53" fill="#FAFAFA"/>
<rect x="97" y="149" width="53" height="53" fill="#FAFAFA"/>
<rect x="97" y="255" width="53" height="53" fill="#12D5E7"/>
<rect x="256" y="96" width="53" height="53" fill="#FAFAFA"/>
<rect x="256" y="202" width="53" height="53" fill="#FAFAFA"/>
<rect x="203" y="149" width="53" height="53" fill="#FAFAFA"/>
<rect x="203" y="255" width="53" height="53" fill="#FAFAFA"/>
</svg>
